<?xml version="1.0" standalone="no"?>
<!DOCTYPE svg PUBLIC "-//W3C//DTD SVG 20010904//EN"
 "http://www.w3.org/TR/2001/REC-SVG-20010904/DTD/svg10.dtd">
<svg version="1.0" xmlns="http://www.w3.org/2000/svg"
 width="1024.000000pt" height="1024.000000pt" viewBox="0 0 1024.000000 1024.000000"
 preserveAspectRatio="xMidYMid meet">

<g transform="translate(0.000000,1024.000000) scale(0.100000,-0.100000)"
fill="#00a3e4" stroke="none">
<path d="M5090 7404 c-71 -7 -287 -44 -380 -65 -322 -73 -714 -257 -975 -458
-155 -118 -364 -332 -497 -506 -253 -333 -431 -772 -489 -1205 -19 -142 -16
-539 5 -669 20 -124 37 -165 79 -184 79 -38 339 -29 518 17 52 13 202 63 334
111 430 155 609 190 940 182 170 -4 236 -9 345 -30 246 -48 524 -132 1110
-337 538 -188 885 -281 1230 -330 269 -39 274 -36 360 202 49 138 53 174 20
200 -22 18 -33 19 -124 11 -291 -23 -548 8 -856 103 -297 93 -503 197 -869
441 -456 305 -611 362 -938 350 -190 -7 -377 -52 -523 -127 -62 -32 -47 -14
30 35 103 66 219 122 338 163 98 33 117 36 222 36 63 1 128 -3 143 -7 39 -11
28 4 -36 52 -95 70 -207 114 -319 127 l-61 7 47 24 c89 45 189 65 331 66 185
2 304 -27 475 -114 97 -49 195 -112 470 -301 85 -58 198 -132 250 -164 197
-120 471 -241 652 -288 221 -57 527 -88 722 -71 77 6 92 10 119 35 l32 28 4
132 c7 268 -33 534 -118 790 -136 406 -336 726 -647 1032 -122 119 -174 162
-319 265 -312 220 -686 368 -1085 428 -102 15 -449 27 -540 19z m455 -339
c131 -17 339 -69 465 -114 47 -18 148 -62 225 -100 539 -265 955 -745 1129
-1303 39 -124 72 -272 82 -371 6 -61 5 -65 -23 -97 -25 -28 -38 -34 -84 -38
-125 -10 -410 73 -644 188 -136 66 -326 186 -459 288 -139 107 -571 497 -817
738 -124 122 -161 145 -199 128 -11 -5 -115 -99 -231 -209 -242 -227 -602
-552 -699 -630 -325 -259 -646 -429 -922 -486 -132 -27 -199 -23 -236 15 -26
25 -27 31 -25 114 2 103 53 313 109 456 262 656 752 1118 1413 1331 293 94
632 127 916 90z"/>
<path d="M5150 6765 c-16 -19 -5 -62 19 -75 32 -17 71 4 71 38 0 15 -5 33 -12
40 -17 17 -63 15 -78 -3z"/>
<path d="M5795 6746 c-102 -48 -155 -132 -155 -247 0 -70 19 -118 71 -174 56
-60 126 -89 204 -83 70 6 109 24 166 75 62 56 84 105 83 188 0 60 -4 79 -30
125 -71 126 -214 175 -339 116z"/>
<path d="M4591 6643 c-51 -27 -76 -66 -75 -118 2 -83 79 -146 159 -131 47 9
102 63 110 108 19 103 -101 190 -194 141z"/>
<path d="M4013 6420 c-35 -21 -63 -66 -63 -100 0 -36 31 -90 61 -105 66 -35
151 -2 177 67 13 34 12 41 -8 83 -35 72 -102 95 -167 55z"/>
<path d="M6455 6278 c-37 -20 -55 -52 -55 -96 0 -85 82 -128 156 -83 37 22 59
70 50 107 -11 43 -59 84 -98 84 -18 0 -42 -6 -53 -12z"/>
<path d="M4494 6172 c-18 -12 -26 -50 -14 -72 16 -30 65 -27 86 5 15 23 15 27
0 50 -16 25 -49 32 -72 17z"/>
<path d="M6015 6016 c-32 -48 32 -100 75 -61 25 23 25 47 2 68 -26 24 -59 21
-77 -7z"/>
<path d="M4181 5951 c-25 -25 -26 -44 -5 -65 29 -30 94 -10 94 28 0 19 -23 43
-47 51 -15 4 -28 0 -42 -14z"/>
<path d="M3615 5911 c-131 -60 -154 -213 -48 -313 125 -118 344 -4 319 167
-19 124 -157 199 -271 146z"/>
<path d="M6843 5890 c-61 -37 -79 -108 -43 -167 26 -43 63 -66 109 -66 75 0
131 56 131 131 0 94 -114 153 -197 102z"/>
<path d="M6279 5829 c-27 -52 46 -105 83 -59 10 12 18 28 18 35 0 43 -80 62
-101 24z"/>
<path d="M6636 5527 c-19 -14 -25 -62 -10 -77 22 -20 53 -21 73 -1 26 26 26
46 1 71 -23 23 -39 25 -64 7z"/>
<path d="M3391 5351 c-28 -28 -26 -57 4 -77 21 -14 31 -15 50 -6 24 11 30 27
25 62 -4 36 -52 48 -79 21z"/>
<path d="M7072 5354 c-31 -22 -26 -63 10 -83 24 -14 28 -14 47 3 27 25 27 61
-1 80 -28 20 -28 20 -56 0z"/>
<path d="M4415 4289 c-171 -15 -324 -58 -627 -175 -323 -124 -419 -145 -668
-145 -144 1 -159 -1 -175 -19 -44 -48 2 -144 107 -223 118 -89 510 -128 788
-78 173 30 268 61 585 191 159 65 333 132 385 148 126 40 314 79 423 88 72 6
87 10 87 24 0 21 -22 31 -185 87 -170 57 -320 90 -479 103 -71 5 -134 9 -140
9 -6 -1 -51 -5 -101 -10z"/>
<path d="M5797 3854 c-236 -36 -441 -113 -922 -344 -396 -190 -564 -245 -825
-270 -176 -17 -387 4 -563 55 -110 32 -132 32 -153 0 -15 -23 -15 -27 6 -60
32 -52 178 -177 283 -242 224 -138 430 -193 727 -194 334 -1 547 57 1063 290
525 238 832 311 1173 282 132 -11 170 -17 398 -60 61 -12 130 -21 155 -21 60
1 135 42 178 98 40 52 43 95 10 124 -29 26 -711 266 -875 307 -198 51 -464 65
-655 35z"/>
<path d="M6228 3020 c-140 -25 -336 -92 -545 -186 -367 -165 -431 -193 -518
-224 -129 -45 -255 -76 -367 -90 -162 -20 -174 -55 -31 -89 233 -54 588 -70
838 -36 158 21 411 83 560 137 213 78 464 214 625 341 51 40 61 52 58 74 -2
14 -14 34 -28 44 -66 49 -390 64 -592 29z"/>
</g>
</svg>
