<svg xmlns="http://www.w3.org/2000/svg" xmlns:xlink="http://www.w3.org/1999/xlink" width="1024" zoomAndPan="magnify" viewBox="0 0 768 767.999994" height="1024" preserveAspectRatio="xMidYMid meet" version="1.2"><g id="db36d04444"><path style=" stroke:none;fill-rule:nonzero;fill:#00a3e4;fill-opacity:1;" d="M 359.417969 71.972656 C 350.601562 72.839844 323.789062 77.433594 312.242188 80.039062 C 272.265625 89.101562 223.601562 111.945312 191.199219 136.898438 C 171.957031 151.546875 146.011719 178.117188 129.5 199.71875 C 98.089844 241.058594 75.992188 295.558594 68.792969 349.3125 C 66.433594 366.941406 66.804688 416.226562 69.414062 432.367188 C 71.894531 447.757812 74.007812 452.851562 79.222656 455.207031 C 89.027344 459.925781 121.304688 458.808594 143.527344 453.097656 C 149.984375 451.484375 168.605469 445.277344 184.992188 439.316406 C 238.375 420.074219 260.597656 415.730469 301.691406 416.722656 C 322.792969 417.21875 330.988281 417.839844 344.519531 420.449219 C 375.058594 426.40625 409.570312 436.835938 482.320312 462.285156 C 549.113281 485.625 592.191406 497.167969 635.019531 503.253906 C 668.414062 508.09375 669.035156 507.722656 679.710938 478.175781 C 685.796875 461.042969 686.292969 456.574219 682.195312 453.347656 C 679.464844 451.113281 678.097656 450.988281 666.800781 451.980469 C 630.675781 454.835938 598.769531 450.988281 560.53125 439.195312 C 523.660156 427.648438 498.085938 414.738281 452.652344 384.445312 C 396.039062 346.582031 376.796875 339.503906 336.203125 340.996094 C 312.613281 341.863281 289.398438 347.449219 271.273438 356.761719 C 263.578125 360.734375 265.4375 358.5 275 352.414062 C 287.785156 344.222656 302.1875 337.269531 316.960938 332.179688 C 329.125 328.082031 331.484375 327.710938 344.519531 327.710938 C 352.339844 327.585938 360.410156 328.082031 362.273438 328.578125 C 367.113281 329.945312 365.75 328.082031 357.804688 322.125 C 346.007812 313.433594 332.105469 307.972656 318.199219 306.359375 L 310.628906 305.488281 L 316.460938 302.507812 C 327.511719 296.921875 339.925781 294.441406 357.554688 294.316406 C 380.523438 294.066406 395.296875 297.667969 416.523438 308.46875 C 428.566406 314.550781 440.734375 322.371094 474.871094 345.835938 C 485.425781 353.035156 499.453125 362.222656 505.910156 366.195312 C 530.367188 381.09375 564.382812 396.113281 586.851562 401.949219 C 614.289062 409.027344 652.277344 412.875 676.484375 410.765625 C 686.042969 410.019531 687.90625 409.523438 691.257812 406.417969 L 695.230469 402.941406 L 695.726562 386.554688 C 696.597656 353.285156 691.628906 320.261719 681.078125 288.480469 C 664.195312 238.078125 639.367188 198.351562 600.757812 160.363281 C 585.609375 145.589844 579.15625 140.25 561.152344 127.464844 C 522.421875 100.152344 475.988281 81.777344 426.457031 74.328125 C 413.792969 72.46875 370.714844 70.976562 359.417969 71.972656 Z M 415.902344 114.054688 C 432.167969 116.167969 457.988281 122.621094 473.632812 128.210938 C 479.464844 130.445312 492.003906 135.90625 501.5625 140.625 C 568.476562 173.523438 620.121094 233.113281 641.722656 302.386719 C 646.566406 317.78125 650.664062 336.152344 651.902344 348.441406 C 652.648438 356.015625 652.523438 356.511719 649.046875 360.484375 C 645.945312 363.960938 644.332031 364.707031 638.621094 365.203125 C 623.101562 366.445312 587.722656 356.140625 558.671875 341.863281 C 541.785156 333.671875 518.199219 318.773438 501.6875 306.109375 C 484.433594 292.824219 430.800781 244.410156 400.261719 214.492188 C 384.867188 199.34375 380.273438 196.488281 375.554688 198.601562 C 374.191406 199.21875 361.28125 210.890625 346.878906 224.546875 C 316.835938 252.726562 272.144531 293.074219 260.101562 302.757812 C 219.753906 334.910156 179.902344 356.015625 145.636719 363.09375 C 129.25 366.445312 120.933594 365.949219 116.339844 361.230469 C 113.113281 358.125 112.988281 357.382812 113.238281 347.078125 C 113.484375 334.289062 119.816406 308.21875 126.769531 290.46875 C 159.292969 209.027344 220.125 151.671875 302.1875 125.230469 C 338.5625 113.558594 380.644531 109.464844 415.902344 114.054688 Z M 415.902344 114.054688 "/><path style=" stroke:none;fill-rule:nonzero;fill:#00a3e4;fill-opacity:1;" d="M 366.867188 151.300781 C 364.878906 153.660156 366.246094 158.996094 369.226562 160.609375 C 373.199219 162.722656 378.039062 160.113281 378.039062 155.894531 C 378.039062 154.03125 377.417969 151.796875 376.550781 150.929688 C 374.4375 148.816406 368.726562 149.066406 366.867188 151.300781 Z M 366.867188 151.300781 "/><path style=" stroke:none;fill-rule:nonzero;fill:#00a3e4;fill-opacity:1;" d="M 446.941406 153.660156 C 434.277344 159.617188 427.695312 170.046875 427.695312 184.324219 C 427.695312 193.011719 430.054688 198.972656 436.511719 205.925781 C 443.464844 213.371094 452.152344 216.972656 461.835938 216.226562 C 470.527344 215.484375 475.367188 213.25 482.445312 206.917969 C 490.140625 199.964844 492.875 193.882812 492.75 183.578125 C 492.75 176.128906 492.253906 173.769531 489.023438 168.058594 C 480.210938 152.417969 462.457031 146.335938 446.941406 153.660156 Z M 446.941406 153.660156 "/><path style=" stroke:none;fill-rule:nonzero;fill:#00a3e4;fill-opacity:1;" d="M 297.46875 166.445312 C 291.136719 169.796875 288.035156 174.640625 288.15625 181.09375 C 288.40625 191.398438 297.964844 199.21875 307.898438 197.359375 C 313.730469 196.242188 320.558594 189.535156 321.554688 183.949219 C 323.910156 171.164062 309.015625 160.363281 297.46875 166.445312 Z M 297.46875 166.445312 "/><path style=" stroke:none;fill-rule:nonzero;fill:#00a3e4;fill-opacity:1;" d="M 225.710938 194.128906 C 221.367188 196.738281 217.890625 202.324219 217.890625 206.546875 C 217.890625 211.015625 221.738281 217.71875 225.464844 219.582031 C 233.65625 223.925781 244.210938 219.828125 247.4375 211.261719 C 249.050781 207.042969 248.925781 206.171875 246.445312 200.957031 C 242.101562 192.019531 233.78125 189.164062 225.710938 194.128906 Z M 225.710938 194.128906 "/><path style=" stroke:none;fill-rule:nonzero;fill:#00a3e4;fill-opacity:1;" d="M 528.875 211.757812 C 524.28125 214.242188 522.046875 218.214844 522.046875 223.675781 C 522.046875 234.230469 532.226562 239.566406 541.414062 233.980469 C 546.007812 231.25 548.738281 225.289062 547.621094 220.699219 C 546.257812 215.359375 540.296875 210.269531 535.457031 210.269531 C 533.222656 210.269531 530.242188 211.015625 528.875 211.757812 Z M 528.875 211.757812 "/><path style=" stroke:none;fill-rule:nonzero;fill:#00a3e4;fill-opacity:1;" d="M 285.425781 224.917969 C 283.191406 226.410156 282.199219 231.125 283.6875 233.855469 C 285.675781 237.582031 291.757812 237.207031 294.363281 233.234375 C 296.226562 230.382812 296.226562 229.882812 294.363281 227.027344 C 292.378906 223.925781 288.28125 223.054688 285.425781 224.917969 Z M 285.425781 224.917969 "/><path style=" stroke:none;fill-rule:nonzero;fill:#00a3e4;fill-opacity:1;" d="M 474.25 244.285156 C 470.277344 250.246094 478.222656 256.699219 483.5625 251.859375 C 486.667969 249.003906 486.667969 246.023438 483.8125 243.417969 C 480.582031 240.4375 476.488281 240.808594 474.25 244.285156 Z M 474.25 244.285156 "/><path style=" stroke:none;fill-rule:nonzero;fill:#00a3e4;fill-opacity:1;" d="M 246.570312 252.355469 C 243.464844 255.457031 243.339844 257.816406 245.949219 260.425781 C 249.546875 264.148438 257.617188 261.664062 257.617188 256.949219 C 257.617188 254.589844 254.761719 251.609375 251.78125 250.617188 C 249.921875 250.121094 248.308594 250.617188 246.570312 252.355469 Z M 246.570312 252.355469 "/><path style=" stroke:none;fill-rule:nonzero;fill:#00a3e4;fill-opacity:1;" d="M 176.300781 257.320312 C 160.039062 264.769531 157.183594 283.761719 170.34375 296.179688 C 185.863281 310.828125 213.050781 296.675781 209.945312 275.445312 C 207.585938 260.050781 190.457031 250.742188 176.300781 257.320312 Z M 176.300781 257.320312 "/><path style=" stroke:none;fill-rule:nonzero;fill:#00a3e4;fill-opacity:1;" d="M 577.042969 259.925781 C 569.472656 264.519531 567.238281 273.335938 571.707031 280.660156 C 574.933594 286 579.527344 288.851562 585.238281 288.851562 C 594.546875 288.851562 601.5 281.902344 601.5 272.589844 C 601.5 260.921875 587.347656 253.597656 577.042969 259.925781 Z M 577.042969 259.925781 "/><path style=" stroke:none;fill-rule:nonzero;fill:#00a3e4;fill-opacity:1;" d="M 507.027344 267.5 C 503.675781 273.957031 512.738281 280.535156 517.332031 274.824219 C 518.570312 273.335938 519.566406 271.347656 519.566406 270.480469 C 519.566406 265.140625 509.632812 262.78125 507.027344 267.5 Z M 507.027344 267.5 "/><path style=" stroke:none;fill-rule:nonzero;fill:#00a3e4;fill-opacity:1;" d="M 551.347656 304.992188 C 548.988281 306.730469 548.242188 312.6875 550.105469 314.550781 C 552.835938 317.035156 556.683594 317.160156 559.167969 314.675781 C 562.394531 311.449219 562.394531 308.964844 559.292969 305.863281 C 556.4375 303.007812 554.449219 302.757812 551.347656 304.992188 Z M 551.347656 304.992188 "/><path style=" stroke:none;fill-rule:nonzero;fill:#00a3e4;fill-opacity:1;" d="M 148.492188 326.84375 C 145.019531 330.316406 145.265625 333.917969 148.992188 336.402344 C 151.597656 338.140625 152.839844 338.261719 155.199219 337.144531 C 158.175781 335.78125 158.921875 333.792969 158.300781 329.449219 C 157.804688 324.980469 151.847656 323.488281 148.492188 326.84375 Z M 148.492188 326.84375 "/><path style=" stroke:none;fill-rule:nonzero;fill:#00a3e4;fill-opacity:1;" d="M 605.472656 326.46875 C 601.625 329.199219 602.246094 334.289062 606.714844 336.773438 C 609.695312 338.511719 610.191406 338.511719 612.550781 336.402344 C 615.902344 333.296875 615.902344 328.828125 612.425781 326.46875 C 608.949219 323.988281 608.949219 323.988281 605.472656 326.46875 Z M 605.472656 326.46875 "/><path style=" stroke:none;fill-rule:nonzero;fill:#00a3e4;fill-opacity:1;" d="M 275.617188 458.683594 C 254.390625 460.546875 235.394531 465.886719 197.78125 480.410156 C 157.679688 495.804688 145.761719 498.410156 114.851562 498.410156 C 96.972656 498.285156 95.113281 498.535156 93.125 500.769531 C 87.664062 506.730469 93.375 518.648438 106.410156 528.453125 C 121.058594 539.503906 169.722656 544.34375 204.234375 538.136719 C 225.710938 534.414062 237.507812 530.566406 276.859375 514.425781 C 296.597656 506.355469 318.199219 498.039062 324.65625 496.050781 C 340.296875 491.085938 363.636719 486.246094 377.171875 485.128906 C 386.109375 484.382812 387.96875 483.886719 387.96875 482.148438 C 387.96875 479.539062 385.238281 478.300781 365.003906 471.347656 C 343.898438 464.269531 325.277344 460.175781 305.539062 458.558594 C 296.722656 457.941406 288.902344 457.441406 288.15625 457.441406 C 287.414062 457.566406 281.828125 458.0625 275.617188 458.683594 Z M 275.617188 458.683594 "/><path style=" stroke:none;fill-rule:nonzero;fill:#00a3e4;fill-opacity:1;" d="M 447.1875 512.6875 C 417.890625 517.15625 392.441406 526.714844 332.726562 555.394531 C 283.5625 578.980469 262.707031 585.808594 230.304688 588.914062 C 208.457031 591.023438 182.261719 588.417969 160.410156 582.085938 C 146.757812 578.113281 144.023438 578.113281 141.417969 582.085938 C 139.554688 584.941406 139.554688 585.4375 142.164062 589.535156 C 146.136719 595.988281 164.261719 611.507812 177.296875 619.578125 C 205.105469 636.710938 230.679688 643.539062 267.550781 643.660156 C 309.015625 643.785156 335.457031 636.585938 399.515625 607.660156 C 464.691406 578.113281 502.804688 569.050781 545.140625 572.648438 C 561.527344 574.015625 566.242188 574.761719 594.546875 580.097656 C 602.121094 581.589844 610.6875 582.707031 613.792969 582.707031 C 621.238281 582.582031 630.550781 577.492188 635.890625 570.539062 C 640.855469 564.085938 641.226562 558.746094 637.128906 555.144531 C 633.53125 551.917969 548.863281 522.121094 528.503906 517.03125 C 503.921875 510.703125 470.898438 508.964844 447.1875 512.6875 Z M 447.1875 512.6875 "/><path style=" stroke:none;fill-rule:nonzero;fill:#00a3e4;fill-opacity:1;" d="M 500.695312 616.226562 C 483.3125 619.328125 458.980469 627.648438 433.035156 639.316406 C 387.472656 659.800781 379.527344 663.277344 368.726562 667.125 C 352.714844 672.710938 337.070312 676.558594 323.167969 678.296875 C 303.054688 680.78125 301.566406 685.125 319.316406 689.347656 C 348.242188 696.050781 392.316406 698.035156 423.351562 693.816406 C 442.96875 691.210938 474.375 683.511719 492.875 676.808594 C 519.316406 667.125 550.476562 650.242188 570.464844 634.472656 C 576.796875 629.507812 578.039062 628.019531 577.664062 625.289062 C 577.417969 623.550781 575.925781 621.066406 574.1875 619.824219 C 565.996094 613.742188 525.773438 611.878906 500.695312 616.226562 Z M 500.695312 616.226562 "/></g></svg>